<?xml version="1.0" standalone="no"?>
<!DOCTYPE svg PUBLIC "-//W3C//DTD SVG 20010904//EN"
 "http://www.w3.org/TR/2001/REC-SVG-20010904/DTD/svg10.dtd">
<svg version="1.0" xmlns="http://www.w3.org/2000/svg"
 width="500.000000pt" height="500.000000pt" viewBox="0 0 500.000000 500.000000"
 preserveAspectRatio="xMidYMid meet">
<metadata>
Created by potrace 1.14, written by Peter Selinger 2001-2017
</metadata>
<g transform="translate(0.000000,500.000000) scale(0.100000,-0.100000)"
fill="#000000" stroke="none">
<path d="M1820 4222 l0 -77 -75 -1 c-42 -1 -78 -3 -80 -6 -3 -2 -5 -39 -6 -82
l-1 -77 -37 1 c-20 1 -55 2 -78 1 l-42 -1 0 -67 c1 -114 6 -105 -58 -103 -110
3 -98 35 -98 -257 l0 -257 -77 1 c-55 2 -78 -1 -79 -10 -1 -7 -2 -214 -3 -462
l-1 -450 -45 -2 c-25 -1 -62 -2 -82 -2 l-38 -1 0 -244 0 -244 -51 -4 c-28 -1
-53 0 -56 5 -2 4 -8 5 -13 2 -10 -6 -116 -10 -135 -5 -5 1 -28 2 -50 1 l-41
-1 0 -365 c1 -359 1 -365 21 -366 11 -1 45 -2 77 -3 31 0 59 -3 62 -6 8 -9 14
-80 7 -85 -4 -2 -5 -19 -3 -38 l4 -34 146 -1 c81 0 266 -1 412 -1 l265 -1 -3
-85 c-2 -74 0 -85 17 -94 10 -6 21 -8 23 -5 7 7 358 7 365 1 3 -3 16 -2 30 4
13 5 22 6 20 1 -3 -4 104 -7 236 -7 l242 0 0 -50 1 -50 392 -2 392 -2 0 148 0
147 75 -1 c46 -1 75 3 76 9 0 6 0 43 -1 83 l-1 72 78 3 78 3 0 278 c0 152 2
278 5 278 3 1 36 2 73 3 39 0 71 6 75 13 8 13 7 395 -1 417 -4 9 -3 16 1 16 6
0 7 105 2 120 -1 3 -1 10 0 15 1 6 4 192 5 415 1 223 3 408 4 411 0 3 85 5
189 5 l187 -1 0 410 c1 226 -1 418 -3 427 -3 12 -14 17 -36 16 -17 0 -65 0
-107 1 l-76 1 -1 76 c-1 42 -4 79 -7 83 -4 3 -318 6 -698 7 l-692 0 -2 52 c0
29 -1 63 -2 77 l-1 24 -390 0 -390 -1 0 -76z"/>
</g>
</svg>
